<svg xmlns="http://www.w3.org/2000/svg" viewBox="0 0 64 64">
  <defs><linearGradient id="coin" x2="1" y2="1"><stop stop-color="#c8ff82"/><stop offset="1" stop-color="#00c9b0"/></linearGradient></defs>
  <rect width="64" height="64" rx="14" fill="#061724"/>
  <path d="M8 35v11c0 8 48 8 48 0V35" fill="#00796b" stroke="#00c9b0" stroke-width="1.5"/>
  <ellipse cx="32" cy="35" rx="24" ry="12" fill="url(#coin)"/>
  <path d="M8 22v11c0 8 48 8 48 0V22" fill="#006158" stroke="#00c9b0" stroke-width="1.5"/>
  <ellipse cx="32" cy="22" rx="24" ry="13" fill="url(#coin)" stroke="#daffb7" stroke-width="1.5"/>
  <path d="M44 16C36 10 20 11 18 21c-2 10 15 15 26 7l-5-4c-7 5-16 2-15-2 1-5 10-6 15-2z" fill="#063a3d"/>
</svg>
